<svg xmlns="http://www.w3.org/2000/svg" pointer-events="none" class="leaflet-zoom-animated" width="1140" height="578" viewBox="-95 -48 1140 578" style="transform: translate3d(-95px, -48px, 0px);"><g><path class="leaflet-interactive" stroke="#201920" stroke-opacity="1" stroke-width="2" stroke-linecap="round" stroke-linejoin="round" fill="none" d="M168 213L168 209L167 210L165 206L169 204L168 201L171 198L172 199L175 196L177 196L177 194L180 195L182 193L183 196L189 196L194 188L199 189L202 186L203 187L203 185L209 183L212 180L219 178L219 171L222 168L221 167L224 166L224 162L221 155L221 149L217 147L217 145L230 141L238 143L239 142L236 139L236 137L242 119L249 122L258 123L262 121L264 119L262 108L266 104L268 105L271 103L273 99L272 98L274 96L280 96L282 103L287 105L289 109L295 109L296 112L299 111L299 113L302 115L304 122L306 122L307 125L307 128L305 130L306 133L304 136L305 143L306 142L309 144L310 143L316 145L326 145L337 153L342 153L341 156L343 156L344 161L350 170L356 169L375 172L391 172L398 177L399 176L404 179L414 180L415 182L419 183L422 180L439 173L449 174L460 171L468 163L472 162L475 159L471 153L472 148L475 144L488 148L492 146L497 140L504 140L510 135L509 134L514 129L518 129L519 126L523 127L525 125L530 124L532 126L539 125L538 120L528 110L523 109L519 113L510 111L507 114L504 111L504 109L506 107L513 87L521 91L528 86L534 84L535 81L533 81L533 79L538 72L540 64L543 61L545 61L546 58L545 53L543 51L540 52L540 50L548 42L549 43L565 39L569 39L573 42L574 41L576 44L579 45L585 45L585 48L587 48L588 52L591 54L590 57L592 58L591 59L594 64L593 65L595 66L595 72L598 75L599 82L601 82L600 87L603 91L610 90L610 92L616 92L616 94L618 94L622 99L626 99L624 102L627 106L625 108L629 114L640 113L645 108L647 109L654 105L661 105L658 106L657 111L659 113L653 119L654 120L651 127L652 130L645 143L642 144L635 141L633 143L634 144L628 146L631 156L631 162L629 168L624 170L625 173L622 170L622 168L619 167L618 172L616 174L615 173L612 178L604 178L607 183L605 185L598 184L596 182L597 181L595 181L596 180L593 181L588 190L581 193L575 198M208 280L205 277L205 275L208 272L210 276L212 274L212 270L207 264L207 260L210 257L204 253L202 245L197 246L190 243L190 241L187 242L185 239L186 236L183 233L181 233L181 231L173 229L175 227L177 228M434 370L432 370L433 367L431 367L433 363L431 361L426 362L422 358L420 358L418 362L413 362L410 365L408 363L406 363L403 366L400 363L398 363L397 366L392 365L392 377L388 376L388 372L380 374L380 372L378 372L377 369L373 369L373 363L375 361L370 359L370 355L368 353L370 351L364 351L360 353L359 352L361 350L359 348L361 344L360 343L368 335L367 334L369 330L369 322L366 319L366 321L364 319L364 315L360 313L360 311L358 313L359 314L357 314L358 317L355 319L348 314L344 314L341 315L341 317L338 319L333 320L327 326L323 327L315 327L315 321L311 321L310 316L305 317L296 314L292 318L290 323L288 321L289 316L287 315L285 317L280 318L276 318L271 315L269 317L267 315L267 317L263 313L260 314L259 310L256 311L251 306L251 304L247 306L242 301L240 301L240 299L239 300L238 298L236 298L235 295L230 294L228 298L214 288L211 289L208 286L208 280M443 374L438 373L434 370M446 503L445 494M454 419L457 423L458 428M462 452L460 460M474 524L482 521M504 493L509 487M528 463L531 454M532 421L532 430M540 396L535 404M555 372L549 380M560 357L562 347" id="国界"/><path class="leaflet-interactive" stroke="#201920" stroke-opacity="1" stroke-width="2" stroke-linecap="butt" stroke-linejoin="round" stroke-dasharray="4,4" stroke-dashoffset="4" fill="none" d="M177 228L179 226L177 224L177 216L175 214L172 213L170 215L168 213" id="争议"/><path class="leaflet-interactive" stroke="gray" stroke-opacity="1" stroke-width="1" stroke-linecap="round" stroke-linejoin="round" stroke-dasharray="8,4,4,4" fill="none" d="M488 368L488 368M493 365L491 365L490 368L495 368L495 366L493 365" id="港澳"/><path class="leaflet-interactive" stroke="#4190da" stroke-opacity="1" stroke-width="1" stroke-linecap="round" stroke-linejoin="round" fill="none" d="M492 367L492 365L490 366L489 363L488 368L486 370L485 369L485 371L482 370L480 372L477 371L475 373L465 375L461 378L461 380L464 383L462 385L458 385L456 379L458 375L456 373L454 375L452 375L452 373L443 374M462 377L462 377M462 377L462 379L462 377M488 368L488 368M492 367L492 367M492 367L492 367M492 367L492 367M539 328L536 329L538 329L539 332L536 333L537 336L535 338L539 338L537 340L534 339L534 341L532 341L533 342L532 343L532 341L530 345L529 344L530 345L528 348L525 347L525 349L519 356L515 356L511 362L505 362L503 364L501 362L498 365L496 363L496 365L495 366L495 364L493 366L495 366L492 367M539 328L539 328M554 306L552 310L553 313L550 316L549 315L548 318L547 317L539 330L538 329L540 327L539 328M552 232L550 234L546 234L547 237L546 236L545 239L542 240L542 238L542 240L533 251L543 259L547 269L547 273L552 277L551 278L555 280L555 282L550 280L548 282L550 284M550 284L556 289L555 290L557 292L553 290L548 293L551 294L555 299L557 299L554 301L556 302L555 306M552 232L552 232M552 232L552 232M558 206L555 210L551 212L548 211L553 208L553 206L552 207L549 204L551 204L551 202L558 195L557 192L556 193L554 191L549 190L544 195L544 197L537 200L534 203L534 205L528 209L528 211L525 210L525 208L523 208L521 212L521 216L523 216L523 218L530 219L533 222L534 221L534 223L531 224L531 226L534 229L538 229L538 227L542 224L541 223L545 222L551 224L551 226L557 225L561 227L558 232L552 232M552 232L552 232M554 306L554 306M554 306L554 306M554 306L554 306M555 306L554 306M555 306L555 306M557 298L557 298M557 298L557 298M557 298L557 298M558 298L557 298M557 298L555 296L557 296L558 298M558 298L558 298M558 296L559 295L558 296M558 296L558 296M558 206L558 206M575 198L573 202L567 202L558 206M559 291L559 291M559 291L559 291M561 290L561 290M450 373L450 373M452 378L452 378M455 388L455 388M455 492L456 490L459 491L458 490L455 492M456 403L448 399L448 393L453 388L465 385L468 389L465 392L463 398L457 401L456 403M459 488L460 487L459 488M462 381L462 381M463 377L463 377M463 488L463 488M463 486L464 485L463 486M464 378L464 376L464 378M464 384L464 384M464 486L464 486M464 379L464 379M469 422L469 422M471 412L472 411L471 412M471 482L471 482M471 417L471 417M471 476L471 476M472 490L472 490M472 488L472 488M472 417L472 417M472 416L472 416M472 487L473 488L472 487M472 419L472 419M472 481L473 482L472 481M472 416L472 416M473 489L473 489M473 416L473 416M473 419L474 418L473 419M473 417L474 416L473 417M473 420L473 420M475 486L475 486M475 418L475 418M475 520L475 520M477 480L477 480M477 480L477 480M477 520L477 520M477 414L477 414M477 423L477 423M477 412L478 413L477 412M477 479L478 480L477 479M477 519L477 519M478 479L478 479M478 506L478 506M478 413L478 413M478 414L478 414M479 418L478 419L479 418M479 373L479 373M479 505L479 505M479 421L480 420L479 421M479 417L480 416L479 417M479 474L479 474M479 506L480 505L479 506M479 504L480 505L479 504M480 480L480 480M480 503L480 503M480 510L480 510M480 373L480 373M480 506L480 506M480 508L480 508M480 417L481 418L480 417M480 510L480 510M481 372L480 373L481 372M481 418L481 418M481 415L481 415M482 373L481 372L482 373M482 479L482 479M482 373L482 373M482 414L482 414M482 488L482 488M482 474L482 474M482 474L482 474M483 511L483 511M483 483L483 483M483 391L483 391M483 473L483 473M483 371L483 371M484 370L484 370M484 371L484 371M485 370L485 370M485 500L485 500M485 486L485 486M485 486L486 485L485 486M488 368L488 368M488 468L488 468M488 495L488 495M488 479L489 478L488 479M489 477L489 477M489 370L489 370M489 424L489 424M489 370L489 370M489 370L489 370M489 370L489 370M489 490L490 489L489 490M490 492L490 492M490 366L490 366M490 369L490 369M490 394L490 394M490 368L492 368L490 368M490 470L490 470M490 425L490 425M490 423L491 424L490 423M490 487L491 486L490 487M490 490L495 487L496 488L494 490L490 490M491 479L490 480L491 479M491 422L491 422M491 480L491 480M491 479L492 480L491 479M491 426L491 426M492 470L492 470M492 463L492 463M492 486L492 486M492 421L492 421M492 368L492 368M493 370L493 370M493 475L493 475M493 367L493 367M493 370L493 370M493 480L493 480M493 420L493 420M493 369L493 369M493 425L493 425M493 468L493 468M493 472L493 472M493 368L493 368M493 424L494 425L493 424M494 473L494 473M494 459L494 459M494 365L494 365M494 462L494 462M494 367L494 367M494 469L494 469M494 464L494 464M494 458L494 458M495 420L495 420M495 471L495 471M495 424L495 424M495 472L495 472M495 463L495 463M495 464L495 464M495 471L495 471M495 486L496 485L495 486M496 471L496 471M496 471L496 471M496 459L496 459M496 471L496 471M496 480L497 479L496 480M496 424L496 424M496 471L497 470L496 471M496 459L497 458L496 459M496 366L496 366M497 490L497 490M497 485L497 485M497 467L497 467M497 458L497 458M497 462L498 461L497 462M497 419L497 419M497 472L497 472M498 485L498 485M498 461L498 461M498 422L498 422M498 464L498 464M498 493L498 493M498 487L498 487M499 463L499 463M499 420L499 420M499 491L499 491M499 461L499 461M501 483L502 484L501 483M501 482L502 483L501 482M502 469L502 469M502 438L502 438M503 475L503 475M503 471L503 471M503 483L504 482L503 483M505 466L505 466M505 466L505 466M505 466L505 466M505 467L506 466L505 467M506 466L506 466M506 473L507 472L506 473M506 463L506 463M507 378L507 378M507 377L508 378L507 377M507 476L507 476M508 470L508 470M509 474L509 474M510 479L510 479M511 472L511 472M511 477L511 477M511 472L511 472M511 467L513 467L511 467M512 472L512 472M513 466L513 466M513 418L513 418M513 458L514 459L513 458M513 381L513 381M513 478L513 478M514 380L514 382L514 380M514 466L514 466M517 357L515 357L517 357M517 465L517 465M517 464L517 464M518 468L518 468M518 465L519 464L518 465M518 461L518 461M518 470L518 470M519 462L519 462M521 465L521 465M521 462L521 462M521 428L522 427L521 428M522 464L522 464M524 348L524 348M525 348L524 347L525 348M525 349L526 348L525 349M527 348L526 349L527 348M529 209L529 209M530 208L530 208M530 208L531 209L530 208M535 359L535 359M535 342L536 341L535 342M536 358L536 358M536 355L536 355M536 355L536 355M536 338L536 338M537 333L537 333M537 356L536 357L537 356M537 337L537 337M537 338L537 338M537 329L538 328L537 329M537 340L537 340M537 340L537 340M538 329L538 329M539 338L539 338M539 333L539 333M539 335L539 335M540 357L540 357M540 332L539 333L540 332M540 330L540 330M541 330L541 330M541 329L541 329M541 327L541 327M541 243L541 243M542 326L542 326M542 367L542 367M542 326L542 326M543 223L543 223M544 331L544 331M545 221L544 220L545 221M545 370L541 363L540 356L546 346L551 341L553 341L555 343L555 348L551 360L547 365L547 371L545 370M545 220L545 220M545 221L545 221M546 219L546 219M546 194L546 194M546 217L546 217M547 216L547 216M547 217L547 217M548 236L548 236M548 317L548 317M548 321L548 321M548 317L549 316L548 317M549 317L550 316L549 317M551 281L556 284L555 285L549 281L551 281M551 274L551 274M551 364L551 364M552 369L552 369M553 370L553 370M553 284L553 284M553 306L553 306M554 310L554 310M554 286L552 285L554 286M554 285L556 286L554 285M554 297L554 297M554 309L554 309M554 310L555 309L554 310M555 312L555 312M555 297L554 298L555 297M555 286L555 286M555 312L555 312M555 339L555 339M555 345L555 345M555 297L555 297M555 287L556 286L555 287M555 295L555 295M556 306L556 306M556 300L556 300M556 298L556 298M556 296L556 296M556 292L556 292M556 298L556 298M556 298L556 298M557 298L557 298M557 298L557 298M557 296L557 296M557 295L558 296L557 295M557 296L557 296M557 303L557 303M557 301L556 300L557 301M557 301L557 301M557 298L558 299L557 298M558 299L558 299M558 299L558 299M558 301L557 300L558 301M558 299L559 298L559 300L558 299M559 208L559 208M559 298L559 298M559 294L559 294M560 294L560 294M560 208L560 208M560 207L560 207M560 292L560 292M561 208L562 207L561 208M562 297L562 297M562 210L561 209L562 210M562 291L562 291M562 291L562 291M564 204L563 205L564 204M564 205L564 205M565 210L565 210M566 337L568 337L566 337M568 336L568 336M569 335L570 336L569 335M569 338L569 338M569 337L569 337M569 338L569 338M569 202L569 202M576 335L575 336L576 335" id="海洋"/><path class="leaflet-interactive" stroke="#747569" stroke-opacity="0.6" stroke-width="1" stroke-linecap="round" stroke-linejoin="round" fill="none" d="M296 239L287 236L277 236L269 238L266 243L258 243L251 247L242 246L241 243L237 243L237 245L235 245L233 248L221 246L221 248L219 250L218 249L217 254L215 256L214 255L210 257M360 274L358 274L358 276L355 279L353 279L352 282L349 280L348 283L346 281L343 282L341 280L342 277L341 278L339 276L341 276L339 276L336 273L330 275L325 274L323 272L316 272L311 269L305 269L301 267L295 259L297 259L297 251L295 251L294 248L297 242L293 240L296 239M318 210L311 211L309 213L303 213L302 215L299 216L300 218L302 218L302 223L304 223L309 230L307 230L304 233L304 235L307 236L305 240L299 238L297 240L296 239M393 264L392 265L391 263L389 263L385 259L385 257L386 256L395 259L395 257L397 257L394 254L394 252L398 248L397 247L401 245L400 242L402 242L403 240L401 234L398 231L400 229L394 223L393 224L389 222L380 215L380 217L378 217L370 209L365 210L363 212L358 208L354 208L355 213L352 216L352 218L350 217L348 219L344 216L335 217L333 212L329 213L329 211L324 211L323 208L318 210M350 170L346 173L348 176L346 180L341 182L338 181L330 188L328 192L322 193L320 203L317 207L318 210M413 226L406 222L406 216L410 214L413 209L411 207L412 206L409 205L403 209L399 207L393 209L395 211L393 213L386 210L385 206L375 201L381 193L380 190L372 190L372 192L371 191L368 193L368 191L365 193L365 190L362 188L360 184L361 182L356 169M372 305L370 291L367 286L370 285L366 281L364 275L360 274M393 264L392 269L388 267L389 272L383 274L381 272L380 273L378 269L377 272L370 269L366 259L362 258L360 259L360 261L358 261L358 263L361 266L358 269L359 270L357 270L358 273L360 274M364 315L364 313L368 315L368 307L370 309L370 305L372 305M421 319L420 316L416 318L414 316L414 310L410 310L410 313L406 315L407 318L402 323L403 330L400 333L400 331L393 334L393 332L391 332L391 328L385 320L386 319L384 317L382 319L379 316L379 311L376 309L374 311L374 315L372 313L372 305M423 270L422 273L416 273L413 270L414 267L412 263L405 262L402 257L396 261L399 264L394 269L393 264M440 222L437 219L431 217L435 210L433 206L429 207L429 209L428 208L426 212L426 220L424 223L413 226M413 226L415 226L422 233L421 234L423 238L423 243L425 243L425 245L427 245L430 248L430 244L435 241L435 239L431 237L431 231L433 229L437 229M421 319L421 321L417 323L413 323L410 321L408 325L409 330L415 328L416 329L413 338L416 341L418 341L415 346M415 346L415 348L419 348L421 352L426 351L428 353L427 357L426 356L423 359M455 334L454 337L451 336L450 337L452 337L452 339L449 338L448 341L444 339L445 340L441 342L438 341L437 338L427 346L420 343L416 347L415 346M430 312L428 310L424 312L424 314L425 313L429 315L430 317L428 319L421 319M437 229L437 231L444 235L445 234L448 237L448 246L446 248L441 247L441 251L431 249L432 252L430 254L433 257L431 257L432 264L426 264L425 267L427 268L424 271L423 270M447 277L441 277L440 275L438 275L439 274L437 275L435 273L436 272L429 273L427 271L424 272L423 270M453 312L452 315L450 315L446 307L442 307L440 305L438 305L438 309L435 308L433 312L431 312L431 310L430 312M430 312L429 308L425 308L425 306L421 302L425 298L423 296L427 294L429 296L432 295L432 297L435 298L438 295L438 291L443 290L443 286L447 283L445 279L447 277M437 229L437 225L440 222M468 206L468 204L465 207L462 207L460 205L461 206L459 208L458 207L459 208L452 215L452 220L450 220L448 224L440 222M447 277L456 282M456 282L461 287L461 289L455 293L446 293L446 295L448 296L446 300L448 300L451 303L450 304L452 303L453 306M453 306L453 312M491 307L489 307L488 300L484 303L483 300L478 303L474 299L470 299L468 297L464 297L464 301L457 300L457 302L456 301L453 306M455 334L455 332L453 332L455 324L450 325L450 323L452 323L451 322L455 320L453 312M475 346L474 345L471 347L471 343L467 343L471 336L469 336L468 331L464 331L461 335L459 333L457 335L455 334M467 267L465 269L463 267L455 267L457 271L458 270L461 273L457 273L455 275L456 282M457 374L457 375M457 374L461 370L462 371L462 369L465 368L465 366L468 363L470 363L470 357L475 352L474 351L476 349L475 346M458 386L459 386M460 386L462 385M462 254L461 251L464 244L462 230L466 224L463 221L463 219L466 216L467 211L469 209L468 206M462 254L467 267M462 254L472 252L475 249L476 250L476 248L482 248L488 244L489 237M463 385L464 384M502 285L500 283L497 284L496 281L491 282L489 278L490 277L488 275L486 277L484 275L477 276L473 274L467 267M467 268L467 268M492 192L492 194L482 196L482 198L479 196L474 204L471 203L471 205L468 206M475 346L477 342L481 342L481 344L483 344L484 341L482 341L484 339L488 341L491 339M503 239L500 238L499 240L489 237M489 237L487 233L489 233L489 231L490 232L489 229L492 226L492 222L490 218L488 218L488 214L490 212L489 210L494 209L496 205L495 202L491 200L491 198L492 199L492 197L495 196L493 194L494 193L492 192M509 300L507 301L503 299L503 301L501 301L498 304L494 304L491 307M491 339L491 335L493 333L491 333L492 330L490 328L490 323L488 321L488 319L493 314L493 310L491 307M491 339L491 341L497 341L497 343L495 343L493 347L495 348L502 345L506 347L505 346L507 344M533 186L526 185L526 177L525 178L523 176L524 175L522 171L516 173L512 179L511 178L508 181L506 179L502 181L502 183L498 183L499 179L495 177L493 183L490 184L492 192M509 254L509 256L512 257L513 260L510 263L506 259L504 261L505 264L503 264L502 267L498 269L501 272L501 274L507 274L507 280L504 281L502 285M509 300L506 294L506 290L508 288L502 285M523 217L518 222L514 222L511 225L510 224L509 227L507 227L507 229L502 234L503 239M509 254L503 254L503 252L501 252L501 250L500 251L498 249L506 241L508 241L508 239L502 243L503 239M507 344L506 341L513 330L512 327L516 325L517 322L515 320L518 319L518 317L521 318L527 314M517 356L514 347L512 347L510 345L511 344L507 344M525 304L525 302L521 302L518 299L516 299L517 300L514 302L513 301L515 299L513 297L509 300M510 254L509 254M534 250L530 250L530 252L527 253L526 256L523 253L521 255L518 254L518 256L514 250L511 251L510 254M537 287L536 288L534 286L530 286L529 285L531 283L529 283L529 281L528 282L526 280L528 278L527 277L529 277L528 274L532 274L533 271L530 270L530 272L526 272L526 270L523 267L525 263L521 263L522 262L519 259L510 254M519 197L517 195L520 192L516 192L512 188L510 190L511 191L505 194L507 196L503 200L503 202L506 205L510 205L512 203L514 204M521 214L518 215L513 212L515 208L514 204M515 203L514 204M515 203L517 203L517 199M517 199L514 200L515 203M517 356L518 357M519 197L517 199M518 358L519 358M519 197L522 200L520 200L520 202L524 208M525 304L531 298L530 297L535 294L533 292L536 291L537 287M525 304L524 307L527 310L527 314M543 324L542 321L538 323L536 319L533 322L530 321L530 314L527 314M533 186L535 184L535 174L540 179L540 181L546 175L547 176L550 173L554 173L556 170L564 170L567 167L569 167L569 163M538 200L538 197L535 194L533 194L533 192L530 191L533 186M547 288L544 291L537 287M545 325L546 325M546 216L548 216M555 283L550 280L549 286L547 288M550 292L547 288M551 292L552 292M567 122L567 124L566 123L564 125L559 118L560 115L574 103L576 109L578 97L582 95L581 87L588 72L582 64L579 66L579 68L564 69L561 60L562 57L558 53L555 56L553 56L553 54L550 52L554 46L552 42M552 292L553 291M554 291L555 291M556 290L557 290M559 290L560 290M561 289L562 289M631 162L626 162L622 156L620 158L620 156L617 158L616 157L614 161L612 161L608 155L607 150L604 153L605 154L602 155L599 149L596 150L597 145L595 143L587 143L585 139L576 140L572 136L572 130L565 131M565 131L564 127L569 125L569 123L568 124L567 122M565 131L562 133L562 137L559 134L556 135L554 133L553 136L556 138L558 142L556 145L558 153L563 152L565 150L568 159L568 161L566 161L569 163M567 122L567 122M567 122L567 122M567 122L567 122M569 163L570 162L575 167L575 169L578 166L579 167L581 175L583 177L584 176L582 178L582 182L584 182L583 183L586 186L584 190L586 190M426 246L427 245L426 246M455 328L456 327L455 328M483 300L483 300" id="省界"/><path class="leaflet-interactive" stroke="#3388ff" stroke-opacity="0" stroke-width="3" stroke-linecap="round" stroke-linejoin="round" fill="#eee" fill-opacity="0.5" fill-rule="evenodd" d="M518 193L520 193L515 192L513 188L508 193L505 194L507 196L506 198L503 199L503 202L506 205L510 205L512 203L513 204L515 202L514 199L519 198L517 196L518 193z" id="北京市"/><path class="leaflet-interactive" stroke="#3388ff" stroke-opacity="0" stroke-width="3" stroke-linecap="round" stroke-linejoin="round" fill="#eee" fill-opacity="0.5" fill-rule="evenodd" d="M522 206L523 205L520 202L520 200L522 200L519 197L517 199L517 203L514 204L515 208L513 212L521 214L523 210L522 209L524 207L521 206zM522 206L522 206z" id="天津市"/><path class="leaflet-interactive" stroke="#3388ff" stroke-opacity="0" stroke-width="3" stroke-linecap="round" stroke-linejoin="round" fill="#eee" fill-opacity="0.5" fill-rule="evenodd" d="M519 193L517 195L522 200L520 200L520 202L527 211L534 205L534 202L538 200L536 194L534 194L531 191L531 189L534 186L526 185L526 177L525 178L523 176L524 175L522 171L516 173L513 179L507 179L502 181L502 183L499 182L499 179L497 177L495 177L493 183L490 184L490 188L494 196L496 196L491 199L495 201L495 207L491 209L488 214L488 218L491 220L492 223L489 229L490 230L487 234L490 237L499 240L501 238L502 239L502 235L506 231L507 227L510 225L511 226L514 222L518 222L523 217L520 214L516 214L513 212L515 208L513 203L511 205L505 205L503 203L503 200L507 196L505 194L508 193L513 188L515 192L519 193zM517 199L514 200L515 203L517 203L517 199zM522 206L521 206zM530 208L530 209z" id="河北省"/><path class="leaflet-interactive" stroke="#3388ff" stroke-opacity="0" stroke-width="3" stroke-linecap="round" stroke-linejoin="round" fill="#eee" fill-opacity="0.5" fill-rule="evenodd" d="M462 254L472 252L475 249L476 250L476 248L482 248L488 244L489 237L487 233L490 231L489 230L492 225L491 220L488 217L490 213L489 210L494 209L496 205L495 202L491 199L496 196L494 196L493 192L488 196L485 195L482 196L481 198L479 196L474 204L472 203L469 206L466 216L463 219L463 221L466 224L462 230L464 242L461 251L462 254z" id="山西省"/><path class="leaflet-interactive" stroke="#3388ff" stroke-opacity="0" stroke-width="3" stroke-linecap="round" stroke-linejoin="round" fill="#eee" fill-opacity="0.5" fill-rule="evenodd" d="M356 169L361 182L359 184L365 190L365 193L369 193L371 191L372 192L372 190L379 190L381 193L380 197L375 201L385 206L385 210L388 210L391 213L393 213L395 211L393 209L398 207L402 209L406 206L411 205L413 209L410 214L406 216L406 222L414 226L423 223L426 220L426 212L428 208L429 209L429 207L432 206L435 209L435 211L431 217L434 219L438 219L438 221L443 222L443 224L448 224L449 221L452 220L451 217L459 208L458 207L459 208L461 206L460 205L462 207L464 207L467 204L469 206L472 203L473 204L479 196L481 198L485 195L488 196L492 194L490 184L493 183L495 177L497 177L499 179L498 182L501 183L506 179L508 181L511 178L512 179L515 177L515 173L519 173L522 171L524 175L523 176L525 178L526 177L526 185L533 186L535 184L535 178L533 176L535 174L540 179L540 181L546 175L547 176L550 173L554 173L560 169L563 170L569 166L569 164L566 161L568 161L568 159L565 150L558 154L556 147L558 143L553 136L554 133L556 135L559 134L562 137L562 133L565 131L564 127L569 125L568 122L566 122L567 123L565 125L563 124L563 122L559 118L560 115L568 110L574 103L576 109L578 97L582 95L581 87L588 72L582 64L579 66L579 68L564 68L561 61L562 56L560 56L557 53L554 56L550 52L554 46L553 43L548 42L540 50L540 52L545 52L546 59L539 66L540 67L535 74L536 75L533 81L535 81L534 84L521 91L513 87L506 103L506 107L504 108L504 111L507 114L510 111L519 114L523 109L528 110L538 120L539 125L537 127L532 126L530 124L522 127L520 126L518 129L514 129L509 135L510 136L505 140L497 140L492 146L488 148L482 147L479 144L474 144L471 152L475 160L467 164L462 170L450 174L439 173L430 176L419 183L416 182L415 180L404 179L400 176L398 177L391 172L370 172L357 170z" id="内蒙古自治区"/><path class="leaflet-interactive" stroke="#3388ff" stroke-opacity="0" stroke-width="3" stroke-linecap="round" stroke-linejoin="round" fill="#eee" fill-opacity="0.5" fill-rule="evenodd" d="M568 202L572 202L579 194L580 195L586 190L586 186L583 183L584 182L582 182L582 178L584 176L583 177L581 175L581 171L578 166L575 169L575 166L570 162L568 167L565 168L566 169L559 169L559 171L557 170L554 173L550 173L540 181L540 179L535 174L533 176L535 178L535 183L531 188L531 191L534 194L536 194L538 200L544 197L544 195L549 190L554 190L558 194L555 197L556 198L551 202L552 203L549 205L553 207L553 209L552 208L552 210L551 209L549 213L554 210L555 211L554 210L560 205L568 202zM561 207L561 207zM558 208L558 208zM561 207L562 208L561 207zM562 210L561 209L562 210zM564 204L563 205L564 204zM560 207L560 208zM546 194L546 194zM564 205L564 205zM565 210L565 210zM569 202L570 202z" id="辽宁省"/><path class="leaflet-interactive" stroke="#3388ff" stroke-opacity="0" stroke-width="3" stroke-linecap="round" stroke-linejoin="round" fill="#eee" fill-opacity="0.5" fill-rule="evenodd" d="M617 174L619 167L621 167L625 173L625 171L623 170L627 169L630 166L631 163L623 160L623 156L621 158L619 156L615 158L614 161L612 161L608 155L607 150L604 153L605 154L602 155L599 149L596 150L597 145L595 143L587 143L585 139L581 141L579 139L576 140L572 136L572 132L570 130L566 130L562 133L562 137L559 134L556 135L554 133L553 136L556 138L558 143L556 145L558 153L560 154L565 150L568 159L568 161L566 161L568 163L570 162L573 165L574 164L574 167L576 169L578 166L579 167L581 175L583 177L584 176L582 178L582 182L584 182L583 183L586 186L586 190L589 189L595 180L599 184L606 185L604 178L612 178L615 173L617 174z" id="吉林省"/><path class="leaflet-interactive" stroke="#3388ff" stroke-opacity="0" stroke-width="3" stroke-linecap="round" stroke-linejoin="round" fill="#eee" fill-opacity="0.5" fill-rule="evenodd" d="M568 131L572 131L572 135L576 140L579 139L581 141L585 139L587 143L595 143L597 145L596 150L599 149L603 155L605 155L604 152L607 150L608 155L612 161L614 161L614 159L619 156L621 158L623 156L623 160L629 163L630 156L628 147L635 142L644 145L645 144L645 140L652 129L651 128L654 120L653 119L658 114L658 106L661 104L645 108L642 111L641 110L642 111L640 113L629 114L625 109L627 107L624 102L626 99L622 99L615 92L612 93L609 90L603 91L601 89L601 82L599 82L598 75L595 72L596 69L594 69L595 66L593 65L594 64L591 60L592 59L588 51L589 50L585 48L586 47L584 45L578 45L568 39L553 41L552 42L554 46L549 52L552 53L553 56L555 56L558 53L562 57L561 60L564 69L579 68L581 64L588 71L586 79L581 86L582 94L578 96L576 109L574 103L563 114L560 115L559 118L564 125L566 123L567 124L567 122L568 124L569 123L569 125L564 126L565 130L568 131z" id="黑龙江省"/><path class="leaflet-interactive" stroke="#3388ff" stroke-opacity="0" stroke-width="3" stroke-linecap="round" stroke-linejoin="round" fill="#eee" fill-opacity="0.5" fill-rule="evenodd" d="M547 288L551 292L556 289L551 284L549 284L547 288zM555 283L550 280L549 281L552 284L556 284zM554 286L552 284L554 286zM554 285L557 286L554 285zM553 284L552 284zM555 287L555 286zM555 286L555 286z" id="上海市"/><path class="leaflet-interactive" stroke="#3388ff" stroke-opacity="0" stroke-width="3" stroke-linecap="round" stroke-linejoin="round" fill="#eee" fill-opacity="0.5" fill-rule="evenodd" d="M518 255L517 256L514 251L510 253L517 259L520 259L522 263L524 263L523 268L525 268L527 272L531 270L533 272L532 275L528 273L529 276L526 280L528 282L529 281L529 283L531 283L529 286L535 286L534 287L538 287L544 291L551 283L549 282L550 280L555 283L555 280L547 272L543 259L535 253L533 249L530 250L527 256L525 256L523 253L521 255L518 255z" id="江苏省"/><path class="leaflet-interactive" stroke="#3388ff" stroke-opacity="0" stroke-width="3" stroke-linecap="round" stroke-linejoin="round" fill="#eee" fill-opacity="0.5" fill-rule="evenodd" d="M527 314L530 315L530 321L533 322L537 319L538 322L542 321L544 324L545 320L549 318L548 315L549 316L553 314L553 306L556 305L554 301L557 299L553 298L548 293L550 291L547 288L544 291L538 287L536 291L533 292L535 294L532 295L530 297L531 298L524 305L524 307L527 310L527 313zM557 298L558 299L558 297L556 296L557 298zM557 296L557 297zM558 301L558 301zM559 291L559 291zM557 295L558 296L557 295zM558 296L558 295zM556 306L556 305zM559 299L559 299zM559 294L559 294zM554 309L555 309zM558 299L558 300zM554 306L554 306zM549 320L549 320zM555 291L556 292L555 291zM555 312L555 312zM557 301L556 300L557 301zM559 298L559 299zM560 292L560 292zM555 312L555 312zM556 296L556 296zM559 298L559 298zM554 298L555 297L554 298zM548 321L548 321zM555 305L556 306L555 305zM556 300L556 301zM555 297L555 297zM555 295L555 295zM557 298L557 298zM558 301L558 300zM549 318L549 318zM562 297L562 297zM558 295L558 295zM558 299L558 299zM562 291L562 291zM548 317L549 316L548 317zM549 317L550 316L549 317zM559 298L559 298zM562 291L562 291zM557 298L558 298zM556 298L556 298zM548 317L548 316zM559 299L559 299zM557 298L557 298z" id="浙江省"/><path class="leaflet-interactive" stroke="#3388ff" stroke-opacity="0" stroke-width="3" stroke-linecap="round" stroke-linejoin="round" fill="#eee" fill-opacity="0.5" fill-rule="evenodd" d="M512 260L513 261L509 263L505 259L505 264L503 264L502 267L498 269L501 272L501 274L507 274L507 281L505 281L502 284L506 288L508 288L505 292L509 300L512 299L512 297L515 299L513 301L514 302L517 299L519 299L520 302L527 303L531 298L530 297L535 294L533 292L535 292L537 288L534 287L535 286L529 286L531 284L527 280L529 276L528 273L532 275L533 272L531 270L527 272L525 268L523 268L525 263L521 263L522 261L520 259L516 259L511 254L509 255L510 257L512 257L512 260zM530 284L531 284zM513 301L513 301zM503 275L503 275z" id="安徽省"/><path class="leaflet-interactive" stroke="#3388ff" stroke-opacity="0" stroke-width="3" stroke-linecap="round" stroke-linejoin="round" fill="#eee" fill-opacity="0.5" fill-rule="evenodd" d="M532 344L531 341L533 343L532 342L535 341L533 341L533 339L539 339L535 337L537 337L537 333L539 331L537 329L539 329L539 327L540 328L538 330L541 329L540 328L543 325L543 323L538 323L536 319L534 322L531 321L529 313L526 314L526 316L522 318L519 317L516 320L517 322L512 327L513 330L511 334L508 336L506 344L510 344L512 346L511 347L514 346L515 353L518 356L525 350L524 347L528 348L530 346L529 345L532 344zM527 348L526 349L527 348zM535 342L536 341L535 342zM536 338L536 338zM539 333L539 332zM525 349L525 348zM539 328L539 328zM525 348L524 347L525 348zM539 333L539 333zM537 333L536 333zM540 330L540 330zM537 338L537 337zM538 329L538 329zM541 329L541 329zM542 326L542 326zM541 327L541 327zM537 329L538 328L537 329z" id="福建省"/><path class="leaflet-interactive" stroke="#3388ff" stroke-opacity="0" stroke-width="3" stroke-linecap="round" stroke-linejoin="round" fill="#eee" fill-opacity="0.5" fill-rule="evenodd" d="M525 304L524 302L520 302L519 299L517 299L514 302L513 301L515 299L513 297L507 301L503 299L503 301L501 301L498 304L494 304L491 307L493 309L493 314L489 318L488 322L490 322L489 325L492 330L491 332L493 332L491 340L497 341L493 346L495 348L502 345L505 347L506 346L508 337L513 330L512 327L517 323L516 320L519 317L522 318L527 315L527 311L524 307L525 304z" id="江西省"/><path class="leaflet-interactive" stroke="#3388ff" stroke-opacity="0" stroke-width="3" stroke-linecap="round" stroke-linejoin="round" fill="#eee" fill-opacity="0.5" fill-rule="evenodd" d="M510 254L511 251L514 250L517 255L521 255L523 253L526 256L528 253L530 253L529 252L531 250L535 249L535 247L542 240L542 238L542 240L545 239L546 236L547 237L546 234L547 235L555 231L558 232L561 226L551 226L551 224L545 222L541 223L542 224L538 227L538 229L534 229L531 225L534 224L534 222L531 219L528 220L523 217L518 222L514 222L511 225L510 224L510 226L509 225L510 226L507 227L507 229L502 234L502 243L508 239L508 241L506 241L498 249L505 255L510 254zM545 221L546 221zM545 220L545 220zM548 236L547 236zM546 219L546 218zM547 217L547 216zM541 243L541 242zM545 221L544 220zM546 217L546 217zM552 224L552 224zM552 224L552 224zM552 224L552 224zM503 241L503 241z" id="山东省"/><path class="leaflet-interactive" stroke="#3388ff" stroke-opacity="0" stroke-width="3" stroke-linecap="round" stroke-linejoin="round" fill="#eee" fill-opacity="0.5" fill-rule="evenodd" d="M481 276L484 275L487 277L489 275L491 282L496 282L497 284L500 283L502 285L503 282L507 281L507 275L503 275L501 271L498 270L502 268L505 259L509 263L513 261L509 254L503 254L503 252L501 252L500 250L499 251L498 248L508 240L503 241L502 243L503 240L501 238L499 240L490 237L488 244L483 248L476 247L475 250L462 255L469 271L476 276L480 276zM489 276L489 277z" id="河南省"/><path class="leaflet-interactive" stroke="#3388ff" stroke-opacity="0" stroke-width="3" stroke-linecap="round" stroke-linejoin="round" fill="#eee" fill-opacity="0.5" fill-rule="evenodd" d="M468 268L455 268L458 271L460 271L459 274L456 273L455 277L456 282L460 285L461 289L454 293L446 293L448 296L446 300L448 300L451 303L450 304L452 303L453 306L454 303L456 301L457 302L457 300L464 301L464 297L474 299L477 302L481 302L483 300L484 303L488 299L488 305L490 307L493 304L499 304L498 303L504 299L507 301L508 300L508 296L506 294L506 290L508 288L504 287L500 283L497 284L496 281L491 282L489 276L476 276L473 273L472 274L468 268zM452 293L452 293zM468 268L468 268zM481 276L481 276zM482 300L483 300z" id="湖北省"/><path class="leaflet-interactive" stroke="#3388ff" stroke-opacity="0" stroke-width="3" stroke-linecap="round" stroke-linejoin="round" fill="#eee" fill-opacity="0.5" fill-rule="evenodd" d="M475 346L477 342L481 342L481 344L483 344L482 341L484 339L488 341L491 338L491 334L493 333L491 333L492 330L490 328L490 322L488 322L488 320L489 317L492 316L491 315L493 313L493 309L490 306L489 307L488 300L484 303L483 300L481 302L477 302L474 299L463 297L463 301L455 301L453 305L453 316L455 320L453 322L452 321L452 323L449 325L454 324L456 326L456 328L454 328L453 331L458 336L458 333L462 335L464 332L470 332L469 335L471 335L467 344L471 342L471 346L475 345zM455 328L455 328z" id="湖南省"/><path class="leaflet-interactive" stroke="#3388ff" stroke-opacity="0" stroke-width="3" stroke-linecap="round" stroke-linejoin="round" fill="#eee" fill-opacity="0.5" fill-rule="evenodd" d="M488 368L489 364L495 366L496 363L498 365L501 362L503 364L505 362L511 362L514 359L514 357L517 356L514 346L511 347L512 346L510 344L506 344L506 347L504 347L503 345L495 348L493 346L497 342L496 340L491 341L491 339L485 339L483 341L482 340L484 342L482 344L480 342L476 343L477 344L475 346L475 352L470 357L471 360L468 364L465 365L464 368L462 368L461 371L460 370L458 373L457 372L458 375L456 379L458 385L462 385L464 383L461 380L463 376L475 373L477 371L485 371L488 368zM516 357L516 357zM482 372L481 373L482 372zM479 373L480 373zM493 369L493 369zM463 377L464 378L464 376L463 377zM479 373L479 372zM463 378L461 378L464 378zM489 370L489 370zM489 370L489 370zM484 371L484 371zM490 366L490 366zM493 370L493 370zM493 370L492 370zM514 380L515 381L513 382L515 382L514 380zM483 371L483 371zM462 381L462 381zM464 379L464 379zM464 384L464 384zM507 377L508 378L507 377zM507 378L507 378zM506 363L506 363zM506 363L506 363z" id="广东省"/><path class="leaflet-interactive" stroke="#3388ff" stroke-opacity="0" stroke-width="3" stroke-linecap="round" stroke-linejoin="round" fill="#eee" fill-opacity="0.5" fill-rule="evenodd" d="M455 334L454 337L451 336L450 337L452 337L450 339L449 338L448 341L447 339L445 339L444 342L442 342L436 338L434 342L427 346L420 343L417 347L415 347L422 352L427 351L429 353L428 356L426 356L423 359L426 362L431 361L433 363L431 367L433 368L432 370L443 374L448 372L451 373L451 375L453 375L456 373L457 374L457 372L458 373L461 370L462 371L462 369L465 368L465 366L471 361L471 355L475 353L474 351L476 349L474 345L471 347L470 342L468 344L467 343L471 336L469 336L469 332L464 332L461 335L459 333L458 336L455 334zM420 344L420 344zM452 378L452 378z" id="广西壮族自治区"/><path class="leaflet-interactive" stroke="#3388ff" stroke-opacity="0" stroke-width="3" stroke-linecap="round" stroke-linejoin="round" fill="#eee" fill-opacity="0.5" fill-rule="evenodd" d="M460 387L453 388L448 393L448 399L450 401L456 403L464 397L464 394L468 390L465 386L460 386zM477 520L477 520zM485 486L486 485zM475 520L475 520zM471 412L472 411L471 412zM521 428L521 427zM477 519L477 519zM473 419L474 419zM472 419L473 419zM490 490L494 490L496 488L495 487L491 490zM491 479L492 480L491 479zM491 480L491 480zM475 418L475 418zM473 417L474 416L473 417zM477 480L477 480zM490 492L490 492zM493 480L493 480zM477 412L478 413L477 412zM497 467L497 467zM506 473L506 472zM496 471L497 470zM489 490L490 489zM455 492L457 490L459 491L455 491zM510 479L510 479zM479 421L480 420L479 421zM480 480L480 480zM495 463L496 463zM479 418L479 418zM511 467L512 467zM478 413L478 413zM471 417L472 417zM503 471L504 471zM497 485L497 485zM495 486L496 485zM501 483L502 484L501 483zM490 487L491 486zM503 475L503 475zM511 477L511 477zM488 479L489 478L488 479zM497 462L498 461L497 462zM496 459L496 458zM499 463L499 463zM472 417L472 417zM491 479L491 480zM459 488L459 487zM513 458L514 459L513 458zM473 416L473 416zM479 417L480 416L479 417zM473 420L474 420zM490 470L490 469zM498 485L498 485zM512 472L512 473zM502 469L502 469zM514 466L514 466zM497 419L497 419zM507 476L507 476zM489 477L489 477zM497 490L497 490zM495 464L496 464zM522 464L522 464zM493 468L493 468zM497 458L497 458zM513 466L513 466zM463 486L464 485L463 486zM471 482L471 482zM501 482L502 482zM485 486L485 486zM492 463L492 463zM518 468L518 467zM493 420L493 420zM464 486L464 486zM503 483L504 482zM472 490L472 490zM472 481L473 481zM463 488L463 488zM478 479L478 479zM511 472L511 472zM475 486L475 486zM495 424L495 424zM499 461L500 461zM492 421L492 421zM508 470L508 469zM518 465L518 464zM498 493L498 493zM482 479L482 479zM473 489L473 489zM477 480L477 480zM479 504L480 504zM496 480L496 479zM498 487L498 486zM483 483L483 483zM488 495L488 495zM513 418L513 418zM518 470L518 469zM483 391L483 391zM495 420L495 420zM490 394L490 394zM480 510L481 510zM472 487L472 487zM477 479L478 479zM482 488L483 488zM480 506L480 506zM479 506L479 505zM502 438L502 438zM488 468L488 468zM490 425L490 425zM483 511L483 511zM480 510L480 510zM478 506L478 506zM477 414L477 414zM477 423L477 423zM480 508L480 508zM479 505L479 505zM485 500L485 500zM509 474L509 474zM499 491L499 490zM472 488L472 488zM491 422L491 422zM499 420L499 421zM513 478L513 478zM480 417L481 417zM469 388L469 388zM505 467L506 467zM517 464L517 465zM481 418L481 418zM506 466L506 466zM479 474L480 474zM496 424L496 424zM518 461L518 462zM521 462L521 462zM493 475L493 475zM497 472L497 473zM480 503L480 503z" id="海南省"/><path class="leaflet-interactive" stroke="#3388ff" stroke-opacity="0" stroke-width="3" stroke-linecap="round" stroke-linejoin="round" fill="#eee" fill-opacity="0.5" fill-rule="evenodd" d="M430 312L431 309L432 312L436 308L437 309L439 305L441 305L442 308L446 306L446 310L448 310L448 312L451 315L454 311L454 307L452 303L450 303L450 301L446 300L448 296L446 294L448 294L449 292L452 293L460 290L461 287L459 284L457 282L453 282L451 279L447 277L447 279L445 279L447 283L443 287L444 286L442 291L438 291L439 292L435 298L433 298L432 295L429 296L425 294L425 296L423 296L425 298L422 304L425 305L425 307L427 307L430 311zM452 292L452 293zM424 297L424 297zM452 293L452 293zM435 298L435 298z" id="重庆市"/><path class="leaflet-interactive" stroke="#3388ff" stroke-opacity="0" stroke-width="3" stroke-linecap="round" stroke-linejoin="round" fill="#eee" fill-opacity="0.5" fill-rule="evenodd" d="M388 324L393 334L402 331L402 323L407 318L407 314L408 315L410 313L409 312L413 310L413 314L415 314L413 316L415 318L421 316L422 319L429 319L429 315L425 313L424 314L424 312L427 309L430 312L429 308L425 308L425 306L421 302L425 299L424 296L423 297L426 294L429 296L432 295L432 297L435 298L439 291L443 290L443 286L447 283L445 279L447 279L447 277L443 277L440 275L439 276L439 274L436 275L435 272L428 273L428 271L426 271L424 273L423 270L422 273L416 273L413 270L414 267L412 263L405 262L402 257L397 260L399 264L394 269L393 264L392 269L388 267L389 272L383 274L381 272L380 273L378 269L377 272L370 269L366 259L360 259L358 263L361 266L358 268L359 269L357 271L365 277L369 285L367 287L370 291L372 312L374 315L374 311L376 309L380 313L379 316L382 319L384 317L388 324zM429 296L429 296zM435 297L435 297zM423 296L423 296z" id="四川省"/><path class="leaflet-interactive" stroke="#3388ff" stroke-opacity="0" stroke-width="3" stroke-linecap="round" stroke-linejoin="round" fill="#eee" fill-opacity="0.5" fill-rule="evenodd" d="M453 312L452 315L450 315L449 312L448 313L448 311L446 310L446 306L442 308L442 306L439 305L438 308L436 308L432 312L431 309L430 312L427 309L424 312L424 314L425 313L429 315L429 318L423 318L420 322L417 323L414 321L412 323L410 321L408 325L409 330L416 329L413 338L416 341L418 341L415 345L417 347L421 343L427 347L429 345L428 344L434 342L436 338L438 339L438 341L443 342L445 340L444 339L448 340L448 338L450 339L452 337L450 337L451 336L454 337L455 332L453 332L453 328L455 328L455 324L450 325L452 323L451 322L455 320L453 312zM455 327L455 327zM455 328L456 328z" id="贵州省"/><path class="leaflet-interactive" stroke="#3388ff" stroke-opacity="0" stroke-width="3" stroke-linecap="round" stroke-linejoin="round" fill="#eee" fill-opacity="0.5" fill-rule="evenodd" d="M421 319L419 315L418 317L415 318L413 316L415 314L413 314L414 311L410 311L410 313L408 315L407 314L406 319L402 323L403 330L400 333L400 331L394 334L387 324L385 320L386 319L384 317L382 319L379 316L380 313L376 309L374 311L374 315L372 313L372 305L370 305L370 309L368 307L367 310L369 313L367 315L365 313L364 314L365 321L368 320L369 323L369 333L367 333L368 335L360 343L361 344L359 348L361 350L359 352L360 353L364 351L370 351L368 353L370 356L369 357L371 360L375 360L372 368L377 369L381 374L385 374L387 372L389 374L388 375L392 377L393 372L391 367L393 365L396 366L399 363L403 366L406 363L410 365L413 362L414 364L418 362L417 361L420 358L423 359L426 356L428 356L429 353L427 351L422 352L419 348L415 348L417 343L417 341L414 338L416 329L414 328L410 330L408 327L410 321L412 323L414 321L418 323L421 320z" id="云南省"/><path class="leaflet-interactive" stroke="#3388ff" stroke-opacity="0" stroke-width="3" stroke-linecap="round" stroke-linejoin="round" fill="#eee" fill-opacity="0.5" fill-rule="evenodd" d="M296 239L287 236L277 236L269 238L266 243L265 242L263 244L260 242L251 247L242 246L241 243L237 243L237 245L235 245L233 248L221 246L221 248L219 250L218 249L217 254L215 256L211 256L207 260L207 264L212 271L211 276L209 276L208 273L205 274L205 278L208 280L208 286L211 289L214 288L219 293L220 292L224 294L228 298L230 294L235 295L247 306L249 304L252 305L251 306L256 311L259 310L261 314L264 313L266 317L268 315L268 317L272 315L275 318L283 318L285 316L289 316L288 321L290 323L297 314L305 316L307 318L309 316L311 320L315 322L316 327L327 326L333 320L338 319L341 317L341 315L344 314L348 314L355 318L358 316L357 315L359 311L364 315L364 313L368 315L368 307L370 309L370 305L372 305L370 296L371 295L369 288L367 286L370 285L366 281L364 275L357 274L358 277L357 276L356 279L352 279L353 282L349 280L348 283L346 281L343 282L341 280L342 277L339 277L340 276L335 273L327 275L322 272L316 272L311 269L305 269L301 267L295 260L297 258L297 251L295 251L294 248L297 242L293 240L296 239z" id="西藏自治区"/><path class="leaflet-interactive" stroke="#3388ff" stroke-opacity="0" stroke-width="3" stroke-linecap="round" stroke-linejoin="round" fill="#eee" fill-opacity="0.5" fill-rule="evenodd" d="M462 254L461 251L464 244L462 230L466 224L463 218L467 214L467 210L469 207L468 204L464 207L460 205L461 206L459 208L458 207L459 208L452 215L452 220L450 220L448 224L444 224L441 221L437 225L437 231L444 235L445 234L448 237L448 247L441 247L441 251L431 249L432 252L430 254L433 257L431 257L432 259L430 261L432 264L426 264L425 267L427 268L425 271L423 271L427 271L429 273L435 272L436 275L439 274L439 276L440 275L443 278L446 277L456 282L455 275L457 273L461 273L458 270L457 271L457 269L455 268L464 267L465 269L467 267L462 254zM467 265L467 265zM428 272L428 272z" id="陕西省"/><path class="leaflet-interactive" stroke="#3388ff" stroke-opacity="0" stroke-width="3" stroke-linecap="round" stroke-linejoin="round" fill="#eee" fill-opacity="0.5" fill-rule="evenodd" d="M431 243L430 248L426 246L427 245L425 245L422 242L422 232L415 226L410 225L408 222L406 222L406 216L410 214L413 209L411 205L406 206L403 209L398 207L395 208L395 211L393 213L386 210L385 206L383 206L377 201L374 201L379 197L381 193L380 190L372 190L372 192L371 191L368 193L368 191L365 193L365 190L362 188L360 184L360 178L356 169L348 171L346 173L348 176L347 179L341 182L338 181L330 188L328 192L322 193L320 203L317 207L318 210L320 208L324 208L324 211L328 211L330 213L333 212L335 216L344 216L348 219L350 217L352 218L352 216L355 213L355 208L364 212L365 209L367 211L369 209L372 210L371 211L378 217L380 218L380 215L383 218L384 217L388 222L396 224L403 240L394 252L394 254L397 257L393 259L386 256L385 257L388 263L393 265L394 264L394 268L397 267L396 266L398 266L399 264L397 263L396 260L398 260L401 257L404 259L405 262L412 263L414 267L413 270L416 273L422 273L423 270L426 270L426 264L432 264L431 257L433 257L430 254L432 252L431 249L440 251L442 250L440 248L441 247L447 248L447 242L449 240L448 236L439 232L436 229L432 229L432 233L430 235L431 238L435 240L434 243L432 243zM427 245L428 245zM401 237L402 237zM428 246L428 246zM431 243L431 243z" id="甘肃省"/><path class="leaflet-interactive" stroke="#3388ff" stroke-opacity="0" stroke-width="3" stroke-linecap="round" stroke-linejoin="round" fill="#eee" fill-opacity="0.5" fill-rule="evenodd" d="M401 237L401 233L395 223L394 224L392 222L388 222L386 218L385 219L380 215L380 217L378 217L370 209L368 209L367 211L365 209L363 212L358 208L354 208L355 213L352 216L352 218L350 217L348 219L344 216L335 217L333 212L330 213L328 211L324 211L324 209L321 208L309 213L304 213L299 216L300 218L303 217L302 223L309 229L304 232L304 234L307 235L307 238L305 240L299 238L297 240L293 240L297 242L294 247L294 249L297 252L297 258L295 260L301 267L305 269L308 268L316 272L325 273L327 275L335 273L342 278L341 280L343 282L346 281L348 283L349 280L353 282L352 279L353 280L356 279L357 276L358 277L357 274L359 274L358 269L360 266L358 262L361 258L366 260L369 267L373 271L376 272L378 270L380 272L379 273L382 272L384 274L389 272L388 267L391 267L392 269L393 265L389 263L385 258L387 256L392 259L397 257L394 254L394 252L398 248L397 247L401 245L400 243L403 240L402 237z" id="青海省"/><path class="leaflet-interactive" stroke="#3388ff" stroke-opacity="0" stroke-width="3" stroke-linecap="round" stroke-linejoin="round" fill="#eee" fill-opacity="0.5" fill-rule="evenodd" d="M437 229L437 225L440 222L437 219L431 217L435 210L433 206L429 207L429 209L428 208L426 212L426 220L424 223L413 226L415 226L422 233L421 234L423 238L423 243L425 243L425 245L427 245L430 248L430 243L434 243L435 240L431 237L431 231L433 229L437 229zM427 245L427 246zM428 246L428 246z" id="宁夏回族自治区"/><path class="leaflet-interactive" stroke="#3388ff" stroke-opacity="0" stroke-width="3" stroke-linecap="round" stroke-linejoin="round" fill="#eee" fill-opacity="0.5" fill-rule="evenodd" d="M350 170L346 165L343 156L341 156L342 153L338 153L326 145L316 145L310 143L309 144L307 142L306 143L304 138L307 133L305 130L307 126L306 122L304 122L300 113L294 109L291 110L287 108L287 106L282 102L283 101L280 100L280 95L278 97L273 96L273 100L268 105L266 104L262 108L264 117L262 121L258 123L249 122L242 119L236 137L236 139L239 141L238 143L233 142L232 140L230 142L223 144L222 143L217 146L221 149L221 155L224 162L224 165L221 167L222 168L219 171L220 176L215 180L203 185L202 187L200 187L200 189L193 189L188 196L185 195L183 197L183 193L179 195L176 194L177 196L175 196L172 199L171 198L168 201L169 204L166 205L167 210L168 209L167 212L170 215L171 213L176 215L178 223L177 224L179 226L177 228L173 228L184 233L186 235L185 240L188 242L189 241L197 246L202 245L202 249L204 251L203 253L209 257L217 255L218 250L221 248L221 246L233 248L238 243L240 243L243 246L248 247L253 246L260 242L262 244L265 243L270 238L274 238L277 236L287 236L297 240L299 238L305 240L307 236L304 233L309 229L303 223L303 217L300 218L299 215L317 210L322 193L328 192L332 186L338 181L340 181L341 183L343 180L345 180L348 176L346 173L348 171z" id="新疆维吾尔自治区"/><path class="leaflet-interactive" stroke="#3388ff" stroke-opacity="0" stroke-width="3" stroke-linecap="round" stroke-linejoin="round" fill="#eee" fill-opacity="0.5" fill-rule="evenodd" d="M543 366L546 371L547 365L551 360L555 348L555 342L549 342L544 348L542 354L540 355L542 365zM576 335L576 335zM567 337L568 336L567 337zM537 356L536 357zM569 335L569 335zM536 355L535 356L536 355zM536 358L536 358zM536 355L536 355zM556 338L556 338zM551 364L552 364zM552 369L552 369zM556 339L557 339zM535 359L535 359zM542 367L543 367z" id="台湾省"/><path class="leaflet-interactive" stroke="#3388ff" stroke-opacity="0" stroke-width="3" stroke-linecap="round" stroke-linejoin="round" fill="#eee" fill-opacity="0.5" fill-rule="evenodd" d="M492 365L492 367L490 367L491 368L495 366L492 365zM492 368L493 368zM494 366L494 366zM494 366L494 366zM494 366L494 366zM494 367L494 367zM494 366L494 366zM494 367L494 367zM494 367L494 367z" id="香港特别行政区"/><path class="leaflet-interactive" stroke="#3388ff" stroke-opacity="0" stroke-width="3" stroke-linecap="round" stroke-linejoin="round" fill="#eee" fill-opacity="0.5" fill-rule="evenodd" d="M488 369L488 368zM488 368L488 368z" id="澳门特别行政区"/><path class="leaflet-interactive" stroke="#3388ff" stroke-opacity="0" stroke-width="3" stroke-linecap="round" stroke-linejoin="round" fill="#eee" fill-opacity="0.5" fill-rule="evenodd" d="M560 357L562 347L560 357zM549 380L555 372L549 380zM535 404L540 395L535 404zM532 429L532 420L532 429zM529 461L528 463L531 454L530 457zM504 494L509 487L504 494zM478 523L474 524L482 521L479 522zM445 502L446 503L445 495L445 502zM460 459L462 456L462 452L461 458zM458 427L454 419L457 425z" id="100000_JD"/></g></svg>